<?xml version="1.0" encoding="UTF-8"?>
<svg width="60px" height="60px" viewBox="0 0 60 60" version="1.1" xmlns="http://www.w3.org/2000/svg" xmlns:xlink="http://www.w3.org/1999/xlink">
    <!-- Generator: Sketch 48.2 (47327) - http://www.bohemiancoding.com/sketch -->
    <title>BCH</title>
    <desc>Created with Sketch.</desc>
    <defs></defs>
    <g id="V3---BCH---iOS-&amp;-Android" stroke="none" stroke-width="1" fill="none" fill-rule="evenodd">
        <g id="BCH" fill="#FFFFFF">
            <g id="Group-17-Copy" transform="translate(1.000000, 1.000000)">
                <path d="M33.1395943,26.6219254 C36.1469709,25.5755409 39.7794854,27.7456444 40.8267111,30.6606853 C41.8803322,33.5930871 40.353461,37.2862087 37.5379425,38.7760834 C36.6186222,39.2621866 35.6257562,39.626764 34.6392855,39.9787154 C32.0492004,40.9051523 28.9171159,41.9783671 26.2598805,42.9032258 C24.8561183,38.9749438 23.1869523,34.3001462 21.827957,30.4949683 C25.4764596,29.2244714 29.6349852,27.8419181 33.1395943,26.6219254 Z M33.3747327,23.5550693 C32.9108478,24.1882035 32.4007339,24.859231 31.0792199,25.3202664 C28.0296949,26.4886437 24.3967271,27.6980721 21.224456,28.8064516 C20.0559762,25.5207852 18.6340336,21.5277768 17.4623656,18.2373737 C18.219566,17.9721205 19.4773157,17.5331895 20.2074163,17.2774096 C22.3403303,16.5337533 24.4716501,15.788518 26.60297,15.0448616 C29.0531111,14.1906831 31.637157,15.0195994 33.1148934,16.9568953 C34.5320537,18.8168257 34.7536345,21.6714556 33.3747327,23.5550693 Z M34.7139038,40.7642907 C35.1648467,42.0166517 35.5808575,43.1915151 36.0111586,44.384978 C36.1556509,44.7848655 36.4208181,45.5179927 35.5935601,45.8047338 C34.9044431,46.0403264 34.6265733,45.2746503 34.4931958,44.9073117 C34.0644824,43.7169488 33.6516474,42.5746343 33.2022923,41.3269231 C32.5639857,41.5470163 31.4890267,41.9174548 30.760214,42.166997 C31.155583,43.2628129 31.6573364,44.6438199 32.055881,45.7458356 C32.2241907,46.2123711 32.4655404,46.8788503 31.7351399,47.1299425 C30.9285237,47.4089338 30.6744713,46.7052557 30.5188642,46.2759191 C30.1981231,45.3831469 29.9472464,44.671719 29.6153905,43.7711971 C29.4867765,43.419358 29.3597504,43.065969 29.1993798,42.6211329 C28.2657374,42.9435228 27.2161836,43.3155112 26.3873378,43.5867528 C25.383831,43.9168925 24.896368,43.7184987 24.556573,42.7807779 C21.60639,34.6373314 18.665734,26.4923349 15.7298414,18.3442385 C15.4043368,17.4390667 15.6425109,16.9663314 16.5539237,16.6315419 C17.4034113,16.3200016 18.481546,15.9650626 19.4517084,15.631823 C18.9737724,14.3112641 18.7419497,13.5579875 18.3021215,12.3366255 C18.1846223,12.0142356 17.7527333,10.875021 18.5418834,10.6037795 C19.2706961,10.3526873 19.6755921,11.5012015 19.7978548,11.8266914 C20.1916359,12.868259 20.5885927,13.9950739 20.990313,15.1094892 C21.6619639,14.8785464 22.7321595,14.5112079 23.4292156,14.2709653 C23.0147927,13.125551 22.5956064,11.9103888 22.1637173,10.7851238 C21.9049015,10.1124448 21.7080109,9.50641364 22.3971279,9.27082098 C23.2259738,8.98562985 23.4276278,9.52966292 23.6848558,10.2503905 C24.0881639,11.3849552 24.500999,12.5164199 24.9471785,13.7486316 C28.6087081,12.4885208 31.6748025,12.8140107 33.9993815,15.6535223 C36.1620022,18.29619 36.0762595,21.157401 34.436034,24.1240086 C39.3551228,24.5765945 41.8178428,27.6160499 42.2894275,30.7671018 C43.1039829,36.2105324 39.6520465,39.1383913 34.7139038,40.7642907 M29,0 C12.9835673,0 0,12.7597127 0,28.5 C0,44.2387365 12.9835673,57 29,57 C45.0164327,57 58,44.2387365 58,28.5 C58,12.7597127 45.0164327,0 29,0" id="Fill-5-Copy"></path>
            </g>
        </g>
    </g>
</svg>