<?xml version="1.0" encoding="UTF-8"?>
<svg width="110px" height="158px" viewBox="0 0 110 158" version="1.1" xmlns="http://www.w3.org/2000/svg" xmlns:xlink="http://www.w3.org/1999/xlink">
    <!-- Generator: Sketch 48.2 (47327) - http://www.bohemiancoding.com/sketch -->
    <title>Onboarding</title>
    <desc>Created with Sketch.</desc>
    <defs>
        <path d="M90.0555386,73.5269633 C98.1551664,70.6535497 107.938449,76.6127407 110.758893,84.6175595 C113.596562,92.6700518 109.484311,102.811511 101.901406,106.902767 C99.4254429,108.237626 96.7514031,109.23877 94.0945874,110.205242 C87.1188315,112.749275 78.683334,115.696366 71.5267252,118.236065 C67.7460377,107.448846 63.2505505,94.6116646 59.5904317,84.162494 C69.4167743,80.6736585 80.616738,76.8771121 90.0555386,73.5269633 Z M91.1724153,65.9075962 C89.9205317,67.6509324 88.5438901,69.498608 84.9775277,70.7680699 C76.7477916,73.9851991 66.9435216,77.3153627 58.3825311,80.367288 C55.2291612,71.3201988 51.3917725,60.3254422 48.2297986,51.2653105 C50.2732511,50.5349352 53.6675333,49.326338 55.6378517,48.6220476 C61.3939348,46.5743883 67.1457158,44.5223815 72.8974969,42.4747222 C79.509679,40.1227398 86.4832295,42.4051626 90.4711884,47.7395107 C94.2956711,52.8608327 94.8936498,60.7210621 91.1724153,65.9075962 Z M95.362834,113.861791 C96.5836415,117.335075 97.7098794,120.593427 98.8748048,123.903363 C99.265979,125.012406 99.9838482,127.045652 97.7442683,127.840897 C95.8786681,128.494287 95.12641,126.370769 94.7653261,125.351997 C93.6046992,122.050658 92.4870586,118.882577 91.2705497,115.42219 C89.5425053,116.032593 86.632341,117.059963 84.6592754,117.75204 C85.7296312,120.791163 87.0879945,124.621232 88.1669476,127.677549 C88.6226011,128.971433 89.275991,130.819839 87.2986268,131.516215 C85.1149289,132.289966 84.42715,130.338394 84.0058855,129.147677 C83.1375646,126.671673 82.458383,124.698607 81.5599719,122.20111 C81.2117838,121.225324 80.8678944,120.245239 80.433734,119.011536 C77.9061466,119.905648 75.0647602,120.937316 72.8208816,121.689574 C70.1041551,122.60518 68.7844794,122.054957 67.8645752,119.454293 C59.8777431,96.8693547 51.9167027,74.2801175 43.9685582,51.6822832 C43.0873415,49.1718903 43.7321342,47.8608118 46.1995409,46.9323104 C48.4993015,46.0682882 51.4180631,45.0839047 54.0445186,44.1597018 C52.7506346,40.4972794 52.1230364,38.4081511 50.9323192,35.0208401 C50.6142215,34.1267276 49.4449974,30.9672434 51.5814105,30.2149853 C53.5544762,29.5186092 54.6506237,32.7038851 54.9816173,33.6065948 C56.0476745,36.4952661 57.122329,39.6203613 58.2098794,42.7110676 C60.0281947,42.0705735 62.9254632,41.0518011 64.8125565,40.3855153 C63.6906172,37.2088367 62.5557821,33.8387202 61.386558,30.7179236 C60.6858833,28.8523234 60.1528547,27.1715638 62.0184548,26.5181739 C64.2623334,25.7272282 64.8082579,27.2360431 65.504634,29.2349004 C66.5964829,32.3814887 67.7141236,35.5194798 68.9220352,38.9368811 C78.8346481,35.4421047 87.1352793,36.3448145 93.4284559,44.2198825 C99.2831735,51.549026 99.0510481,59.4842747 94.6105758,67.7118294 C107.927694,68.9670258 114.594851,77.3966155 115.87154,86.1357057 C118.076731,101.232452 108.731536,109.352541 95.362834,113.861791 M79.8921081,0 C36.2611363,0 0.892108108,35.3690282 0.892108108,79 C0.892108108,122.626673 36.2611363,158 79.8921081,158 C123.52308,158 158.892108,122.626673 158.892108,79 C158.892108,35.3690282 123.52308,0 79.8921081,0" id="path-1"></path>
    </defs>
    <g id="V3---BCH---iOS-&amp;-Android" stroke="none" stroke-width="1" fill="none" fill-rule="evenodd">
        <g id="Onboarding">
            <g id="Rectangle-Copy" transform="translate(-49.000000, 0.000000)">
                <mask id="mask-2" fill="white">
                    <use xlink:href="#path-1"></use>
                </mask>
                <use id="Mask" fill="#B2D5E5" xlink:href="#path-1"></use>
            </g>
        </g>
    </g>
</svg>