<?xml version="1.0" encoding="UTF-8"?>
<svg width="60px" height="60px" viewBox="0 0 60 60" version="1.1" xmlns="http://www.w3.org/2000/svg" xmlns:xlink="http://www.w3.org/1999/xlink">
    <!-- Generator: Sketch 48.2 (47327) - http://www.bohemiancoding.com/sketch -->
    <title>ETH</title>
    <desc>Created with Sketch.</desc>
    <defs></defs>
    <g id="V3---BCH---iOS-&amp;-Android" stroke="none" stroke-width="1" fill="none" fill-rule="evenodd">
        <g id="ETH" fill="#FFFFFF">
            <g id="Group-19-Copy" transform="translate(10.000000, 0.000000)">
                <path d="M21.890797,53.2517117 C26.6042248,46.9439971 30.7417461,42.1297448 35.5390714,35.7134897 C34.9607948,36.0922365 26.9241729,41.7422964 22.5141033,44.3055927 C22.1225816,44.5332071 21.9268208,45.3355825 21.9182888,45.8755372 C21.8599872,49.4019586 21.896485,49.7239163 21.890797,53.2517117 M17.0645578,44.0253109 C12.361558,41.316378 9.49150512,38.7109479 4.75248145,36.0606361 C9.64271022,42.5753563 13.024206,46.6344047 17.9570945,53.2315607 C18.217319,49.5773637 18.1523813,48.93986 18.0613739,45.5975452 C18.04668,45.0543847 17.5594109,44.3101724 17.0645578,44.0253109 M36.0329764,31.9370129 C30.4075781,23.0243262 27.7934837,18.0419965 22.0306262,8.91222874 L22.0306262,40.427903 C27.7105342,37.2559556 30.2990327,35.1387288 36.0329764,31.9370129 M17.9139608,40.408668 L17.9139608,8.97497157 C12.1553692,18.109777 9.53037289,23.1214173 3.97323011,31.935639 C9.66925406,35.1217837 12.2487466,37.2394684 17.9139608,40.408668 M0.538172651,33.9539428 C0.0655974762,33.3136912 -0.193678974,31.9791468 0.174142827,31.3888147 C6.71293373,20.8851165 13.3721199,10.4510308 20.0019183,0 C26.6283987,10.4519468 33.2847409,20.8874064 39.8225838,31.3915625 C40.1913536,31.9841845 39.9420311,33.3201029 39.4708779,33.9585226 C33.0358924,42.6765691 26.5051594,51.329125 20.0014443,60 C13.5000992,51.3277511 6.97126219,42.6733633 0.538172651,33.9539428" id="Page-1-Copy"></path>
            </g>
        </g>
    </g>
</svg>